solid hook_base - hook-1 hook_springrest-2
   facet normal -1.000000e+00 -0.000000e+00 0.000000e+00
      outer loop
         vertex 8.473073e+01 5.103057e+01 8.915360e+00
         vertex 8.473073e+01 5.103057e+01 1.461536e+01
         vertex 8.473073e+01 5.223057e+01 8.915360e+00
      endloop
   endfacet
   facet normal -1.000000e+00 -0.000000e+00 0.000000e+00
      outer loop
         vertex 8.473073e+01 5.223057e+01 8.915360e+00
         vertex 8.473073e+01 5.103057e+01 1.461536e+01
         vertex 8.473073e+01 5.223057e+01 1.461536e+01
      endloop
   endfacet
   facet normal -0.000000e+00 3.491481e-15 -1.000000e+00
      outer loop
         vertex 8.973073e+01 5.103057e+01 8.915360e+00
         vertex 8.473073e+01 5.103057e+01 8.915360e+00
         vertex 8.973073e+01 5.223057e+01 8.915360e+00
      endloop
   endfacet
   facet normal 0.000000e+00 3.491481e-15 -1.000000e+00
      outer loop
         vertex 8.973073e+01 5.223057e+01 8.915360e+00
         vertex 8.473073e+01 5.103057e+01 8.915360e+00
         vertex 8.473073e+01 5.223057e+01 8.915360e+00
      endloop
   endfacet
   facet normal 1.000000e+00 0.000000e+00 0.000000e+00
      outer loop
         vertex 8.973073e+01 5.103057e+01 1.257482e+01
         vertex 8.973073e+01 5.103057e+01 8.915360e+00
         vertex 8.973073e+01 5.223057e+01 1.257482e+01
      endloop
   endfacet
   facet normal 1.000000e+00 0.000000e+00 0.000000e+00
      outer loop
         vertex 8.973073e+01 5.223057e+01 1.257482e+01
         vertex 8.973073e+01 5.103057e+01 8.915360e+00
         vertex 8.973073e+01 5.223057e+01 8.915360e+00
      endloop
   endfacet
   facet normal 0.000000e+00 3.491481e-15 -1.000000e+00
      outer loop
         vertex 9.013073e+01 5.223057e+01 1.297482e+01
         vertex 9.123073e+01 5.223057e+01 1.297482e+01
         vertex 9.013073e+01 5.103057e+01 1.297482e+01
      endloop
   endfacet
   facet normal 0.000000e+00 3.491481e-15 -1.000000e+00
      outer loop
         vertex 9.013073e+01 5.103057e+01 1.297482e+01
         vertex 9.123073e+01 5.223057e+01 1.297482e+01
         vertex 9.123073e+01 5.103057e+01 1.297482e+01
      endloop
   endfacet
   facet normal 1.000000e+00 0.000000e+00 0.000000e+00
      outer loop
         vertex 9.123073e+01 5.103057e+01 1.427482e+01
         vertex 9.123073e+01 5.103057e+01 1.297482e+01
         vertex 9.123073e+01 5.223057e+01 1.427482e+01
      endloop
   endfacet
   facet normal 1.000000e+00 0.000000e+00 0.000000e+00
      outer loop
         vertex 9.123073e+01 5.223057e+01 1.427482e+01
         vertex 9.123073e+01 5.103057e+01 1.297482e+01
         vertex 9.123073e+01 5.223057e+01 1.297482e+01
      endloop
   endfacet
   facet normal 0.000000e+00 -3.491481e-15 1.000000e+00
      outer loop
         vertex 9.073073e+01 5.103057e+01 1.427482e+01
         vertex 9.123073e+01 5.103057e+01 1.427482e+01
         vertex 9.073073e+01 5.223057e+01 1.427482e+01
      endloop
   endfacet
   facet normal 0.000000e+00 -3.491481e-15 1.000000e+00
      outer loop
         vertex 9.073073e+01 5.223057e+01 1.427482e+01
         vertex 9.123073e+01 5.103057e+01 1.427482e+01
         vertex 9.123073e+01 5.223057e+01 1.427482e+01
      endloop
   endfacet
   facet normal -1.000000e+00 -0.000000e+00 0.000000e+00
      outer loop
         vertex 9.073073e+01 5.103057e+01 1.401536e+01
         vertex 9.073073e+01 5.103057e+01 1.427482e+01
         vertex 9.073073e+01 5.223057e+01 1.401536e+01
      endloop
   endfacet
   facet normal -1.000000e+00 -0.000000e+00 0.000000e+00
      outer loop
         vertex 9.073073e+01 5.223057e+01 1.401536e+01
         vertex 9.073073e+01 5.103057e+01 1.427482e+01
         vertex 9.073073e+01 5.223057e+01 1.427482e+01
      endloop
   endfacet
   facet normal 0.000000e+00 -3.491481e-15 1.000000e+00
      outer loop
         vertex 9.033073e+01 5.223057e+01 1.361536e+01
         vertex 8.963073e+01 5.223057e+01 1.361536e+01
         vertex 9.033073e+01 5.103057e+01 1.361536e+01
      endloop
   endfacet
   facet normal 0.000000e+00 -3.491481e-15 1.000000e+00
      outer loop
         vertex 9.033073e+01 5.103057e+01 1.361536e+01
         vertex 8.963073e+01 5.223057e+01 1.361536e+01
         vertex 8.963073e+01 5.103057e+01 1.361536e+01
      endloop
   endfacet
   facet normal 1.000000e+00 0.000000e+00 0.000000e+00
      outer loop
         vertex 8.923073e+01 5.223057e+01 1.401536e+01
         vertex 8.923073e+01 5.223057e+01 1.461536e+01
         vertex 8.923073e+01 5.103057e+01 1.401536e+01
      endloop
   endfacet
   facet normal 1.000000e+00 0.000000e+00 0.000000e+00
      outer loop
         vertex 8.923073e+01 5.103057e+01 1.401536e+01
         vertex 8.923073e+01 5.223057e+01 1.461536e+01
         vertex 8.923073e+01 5.103057e+01 1.461536e+01
      endloop
   endfacet
   facet normal 0.000000e+00 -3.491481e-15 1.000000e+00
      outer loop
         vertex 8.473073e+01 5.103057e+01 1.461536e+01
         vertex 8.923073e+01 5.103057e+01 1.461536e+01
         vertex 8.473073e+01 5.223057e+01 1.461536e+01
      endloop
   endfacet
   facet normal 0.000000e+00 -3.491481e-15 1.000000e+00
      outer loop
         vertex 8.473073e+01 5.223057e+01 1.461536e+01
         vertex 8.923073e+01 5.103057e+01 1.461536e+01
         vertex 8.923073e+01 5.223057e+01 1.461536e+01
      endloop
   endfacet
   facet normal 0.000000e+00 -1.000000e+00 -3.491481e-15
      outer loop
         vertex 8.473073e+01 5.103057e+01 8.915360e+00
         vertex 8.928432e+01 5.103057e+01 1.381536e+01
         vertex 8.473073e+01 5.103057e+01 1.461536e+01
      endloop
   endfacet
   facet normal 0.000000e+00 -1.000000e+00 -3.491481e-15
      outer loop
         vertex 8.473073e+01 5.103057e+01 1.461536e+01
         vertex 8.928432e+01 5.103057e+01 1.381536e+01
         vertex 8.923073e+01 5.103057e+01 1.401536e+01
      endloop
   endfacet
   facet normal 0.000000e+00 -1.000000e+00 -3.491481e-15
      outer loop
         vertex 8.473073e+01 5.103057e+01 1.461536e+01
         vertex 8.923073e+01 5.103057e+01 1.401536e+01
         vertex 8.923073e+01 5.103057e+01 1.461536e+01
      endloop
   endfacet
   facet normal 0.000000e+00 -1.000000e+00 -3.491481e-15
      outer loop
         vertex 8.993073e+01 5.103057e+01 1.292123e+01
         vertex 8.943073e+01 5.103057e+01 1.366895e+01
         vertex 8.978432e+01 5.103057e+01 1.277482e+01
      endloop
   endfacet
   facet normal 0.000000e+00 -1.000000e+00 -3.491481e-15
      outer loop
         vertex 8.978432e+01 5.103057e+01 1.277482e+01
         vertex 8.943073e+01 5.103057e+01 1.366895e+01
         vertex 8.928432e+01 5.103057e+01 1.381536e+01
      endloop
   endfacet
   facet normal 0.000000e+00 -1.000000e+00 -3.491481e-15
      outer loop
         vertex 8.978432e+01 5.103057e+01 1.277482e+01
         vertex 8.928432e+01 5.103057e+01 1.381536e+01
         vertex 8.973073e+01 5.103057e+01 1.257482e+01
      endloop
   endfacet
   facet normal 0.000000e+00 -1.000000e+00 -3.491481e-15
      outer loop
         vertex 8.973073e+01 5.103057e+01 1.257482e+01
         vertex 8.928432e+01 5.103057e+01 1.381536e+01
         vertex 8.473073e+01 5.103057e+01 8.915360e+00
      endloop
   endfacet
   facet normal 0.000000e+00 -1.000000e+00 -3.491481e-15
      outer loop
         vertex 8.973073e+01 5.103057e+01 1.257482e+01
         vertex 8.473073e+01 5.103057e+01 8.915360e+00
         vertex 8.973073e+01 5.103057e+01 8.915360e+00
      endloop
   endfacet
   facet normal 0.000000e+00 -1.000000e+00 -3.491481e-15
      outer loop
         vertex 9.123073e+01 5.103057e+01 1.427482e+01
         vertex 9.073073e+01 5.103057e+01 1.427482e+01
         vertex 9.073073e+01 5.103057e+01 1.401536e+01
      endloop
   endfacet
   facet normal 0.000000e+00 -1.000000e+00 -3.491481e-15
      outer loop
         vertex 9.123073e+01 5.103057e+01 1.427482e+01
         vertex 9.073073e+01 5.103057e+01 1.401536e+01
         vertex 9.123073e+01 5.103057e+01 1.297482e+01
      endloop
   endfacet
   facet normal 0.000000e+00 -1.000000e+00 -3.491481e-15
      outer loop
         vertex 9.073073e+01 5.103057e+01 1.401536e+01
         vertex 9.067714e+01 5.103057e+01 1.381536e+01
         vertex 9.123073e+01 5.103057e+01 1.297482e+01
      endloop
   endfacet
   facet normal 0.000000e+00 -1.000000e+00 -3.491481e-15
      outer loop
         vertex 9.123073e+01 5.103057e+01 1.297482e+01
         vertex 9.067714e+01 5.103057e+01 1.381536e+01
         vertex 9.053073e+01 5.103057e+01 1.366895e+01
      endloop
   endfacet
   facet normal 0.000000e+00 -1.000000e+00 -3.491481e-15
      outer loop
         vertex 9.123073e+01 5.103057e+01 1.297482e+01
         vertex 9.053073e+01 5.103057e+01 1.366895e+01
         vertex 9.013073e+01 5.103057e+01 1.297482e+01
      endloop
   endfacet
   facet normal 0.000000e+00 -1.000000e+00 -3.491481e-15
      outer loop
         vertex 9.013073e+01 5.103057e+01 1.297482e+01
         vertex 9.053073e+01 5.103057e+01 1.366895e+01
         vertex 9.033073e+01 5.103057e+01 1.361536e+01
      endloop
   endfacet
   facet normal 0.000000e+00 -1.000000e+00 -3.491481e-15
      outer loop
         vertex 9.013073e+01 5.103057e+01 1.297482e+01
         vertex 9.033073e+01 5.103057e+01 1.361536e+01
         vertex 8.993073e+01 5.103057e+01 1.292123e+01
      endloop
   endfacet
   facet normal 0.000000e+00 -1.000000e+00 -3.491481e-15
      outer loop
         vertex 8.993073e+01 5.103057e+01 1.292123e+01
         vertex 9.033073e+01 5.103057e+01 1.361536e+01
         vertex 8.963073e+01 5.103057e+01 1.361536e+01
      endloop
   endfacet
   facet normal 0.000000e+00 -1.000000e+00 -3.491481e-15
      outer loop
         vertex 8.993073e+01 5.103057e+01 1.292123e+01
         vertex 8.963073e+01 5.103057e+01 1.361536e+01
         vertex 8.943073e+01 5.103057e+01 1.366895e+01
      endloop
   endfacet
   facet normal 0.000000e+00 1.000000e+00 3.491481e-15
      outer loop
         vertex 8.928432e+01 5.223057e+01 1.381536e+01
         vertex 8.473073e+01 5.223057e+01 8.915360e+00
         vertex 8.923073e+01 5.223057e+01 1.401536e+01
      endloop
   endfacet
   facet normal 0.000000e+00 1.000000e+00 3.491481e-15
      outer loop
         vertex 8.923073e+01 5.223057e+01 1.401536e+01
         vertex 8.473073e+01 5.223057e+01 8.915360e+00
         vertex 8.473073e+01 5.223057e+01 1.461536e+01
      endloop
   endfacet
   facet normal 0.000000e+00 1.000000e+00 3.491481e-15
      outer loop
         vertex 8.923073e+01 5.223057e+01 1.401536e+01
         vertex 8.473073e+01 5.223057e+01 1.461536e+01
         vertex 8.923073e+01 5.223057e+01 1.461536e+01
      endloop
   endfacet
   facet normal 0.000000e+00 1.000000e+00 3.491481e-15
      outer loop
         vertex 9.123073e+01 5.223057e+01 1.297482e+01
         vertex 9.053073e+01 5.223057e+01 1.366895e+01
         vertex 9.067714e+01 5.223057e+01 1.381536e+01
      endloop
   endfacet
   facet normal 0.000000e+00 1.000000e+00 3.491481e-15
      outer loop
         vertex 9.123073e+01 5.223057e+01 1.297482e+01
         vertex 9.067714e+01 5.223057e+01 1.381536e+01
         vertex 9.123073e+01 5.223057e+01 1.427482e+01
      endloop
   endfacet
   facet normal 0.000000e+00 1.000000e+00 3.491481e-15
      outer loop
         vertex 9.123073e+01 5.223057e+01 1.427482e+01
         vertex 9.067714e+01 5.223057e+01 1.381536e+01
         vertex 9.073073e+01 5.223057e+01 1.401536e+01
      endloop
   endfacet
   facet normal 0.000000e+00 1.000000e+00 3.491481e-15
      outer loop
         vertex 9.123073e+01 5.223057e+01 1.427482e+01
         vertex 9.073073e+01 5.223057e+01 1.401536e+01
         vertex 9.073073e+01 5.223057e+01 1.427482e+01
      endloop
   endfacet
   facet normal 0.000000e+00 1.000000e+00 3.491481e-15
      outer loop
         vertex 9.053073e+01 5.223057e+01 1.366895e+01
         vertex 9.123073e+01 5.223057e+01 1.297482e+01
         vertex 9.033073e+01 5.223057e+01 1.361536e+01
      endloop
   endfacet
   facet normal 0.000000e+00 1.000000e+00 3.491481e-15
      outer loop
         vertex 9.033073e+01 5.223057e+01 1.361536e+01
         vertex 9.123073e+01 5.223057e+01 1.297482e+01
         vertex 9.013073e+01 5.223057e+01 1.297482e+01
      endloop
   endfacet
   facet normal 0.000000e+00 1.000000e+00 3.491481e-15
      outer loop
         vertex 9.033073e+01 5.223057e+01 1.361536e+01
         vertex 9.013073e+01 5.223057e+01 1.297482e+01
         vertex 8.963073e+01 5.223057e+01 1.361536e+01
      endloop
   endfacet
   facet normal 0.000000e+00 1.000000e+00 3.491481e-15
      outer loop
         vertex 8.963073e+01 5.223057e+01 1.361536e+01
         vertex 9.013073e+01 5.223057e+01 1.297482e+01
         vertex 8.993073e+01 5.223057e+01 1.292123e+01
      endloop
   endfacet
   facet normal -0.000000e+00 1.000000e+00 3.491481e-15
      outer loop
         vertex 8.963073e+01 5.223057e+01 1.361536e+01
         vertex 8.993073e+01 5.223057e+01 1.292123e+01
         vertex 8.943073e+01 5.223057e+01 1.366895e+01
      endloop
   endfacet
   facet normal 0.000000e+00 1.000000e+00 3.491481e-15
      outer loop
         vertex 8.943073e+01 5.223057e+01 1.366895e+01
         vertex 8.993073e+01 5.223057e+01 1.292123e+01
         vertex 8.978432e+01 5.223057e+01 1.277482e+01
      endloop
   endfacet
   facet normal -0.000000e+00 1.000000e+00 3.491481e-15
      outer loop
         vertex 8.943073e+01 5.223057e+01 1.366895e+01
         vertex 8.978432e+01 5.223057e+01 1.277482e+01
         vertex 8.928432e+01 5.223057e+01 1.381536e+01
      endloop
   endfacet
   facet normal 0.000000e+00 1.000000e+00 3.491481e-15
      outer loop
         vertex 8.928432e+01 5.223057e+01 1.381536e+01
         vertex 8.978432e+01 5.223057e+01 1.277482e+01
         vertex 8.473073e+01 5.223057e+01 8.915360e+00
      endloop
   endfacet
   facet normal 0.000000e+00 1.000000e+00 3.491481e-15
      outer loop
         vertex 8.473073e+01 5.223057e+01 8.915360e+00
         vertex 8.978432e+01 5.223057e+01 1.277482e+01
         vertex 8.973073e+01 5.223057e+01 1.257482e+01
      endloop
   endfacet
   facet normal 0.000000e+00 1.000000e+00 3.491481e-15
      outer loop
         vertex 8.473073e+01 5.223057e+01 8.915360e+00
         vertex 8.973073e+01 5.223057e+01 1.257482e+01
         vertex 8.973073e+01 5.223057e+01 8.915360e+00
      endloop
   endfacet
   facet normal 2.588167e-01 3.372514e-15 -9.659264e-01
      outer loop
         vertex 9.013073e+01 5.223057e+01 1.297482e+01
         vertex 9.013073e+01 5.103057e+01 1.297482e+01
         vertex 8.993073e+01 5.223057e+01 1.292123e+01
      endloop
   endfacet
   facet normal 2.588167e-01 3.372514e-15 -9.659264e-01
      outer loop
         vertex 8.993073e+01 5.223057e+01 1.292123e+01
         vertex 9.013073e+01 5.103057e+01 1.297482e+01
         vertex 8.993073e+01 5.103057e+01 1.292123e+01
      endloop
   endfacet
   facet normal 7.071068e-01 2.468850e-15 -7.071068e-01
      outer loop
         vertex 8.993073e+01 5.223057e+01 1.292123e+01
         vertex 8.993073e+01 5.103057e+01 1.292123e+01
         vertex 8.978432e+01 5.223057e+01 1.277482e+01
      endloop
   endfacet
   facet normal 7.071068e-01 2.468850e-15 -7.071068e-01
      outer loop
         vertex 8.978432e+01 5.223057e+01 1.277482e+01
         vertex 8.993073e+01 5.103057e+01 1.292123e+01
         vertex 8.978432e+01 5.103057e+01 1.277482e+01
      endloop
   endfacet
   facet normal 9.659253e-01 9.036684e-16 -2.588209e-01
      outer loop
         vertex 8.978432e+01 5.223057e+01 1.277482e+01
         vertex 8.978432e+01 5.103057e+01 1.277482e+01
         vertex 8.973073e+01 5.223057e+01 1.257482e+01
      endloop
   endfacet
   facet normal 9.659253e-01 9.036684e-16 -2.588209e-01
      outer loop
         vertex 8.973073e+01 5.223057e+01 1.257482e+01
         vertex 8.978432e+01 5.103057e+01 1.277482e+01
         vertex 8.973073e+01 5.103057e+01 1.257482e+01
      endloop
   endfacet
   facet normal -2.588198e-01 -3.372511e-15 9.659256e-01
      outer loop
         vertex 9.033073e+01 5.223057e+01 1.361536e+01
         vertex 9.033073e+01 5.103057e+01 1.361536e+01
         vertex 9.053073e+01 5.223057e+01 1.366895e+01
      endloop
   endfacet
   facet normal -2.588198e-01 -3.372511e-15 9.659256e-01
      outer loop
         vertex 9.053073e+01 5.223057e+01 1.366895e+01
         vertex 9.033073e+01 5.103057e+01 1.361536e+01
         vertex 9.053073e+01 5.103057e+01 1.366895e+01
      endloop
   endfacet
   facet normal -7.071068e-01 -2.468850e-15 7.071068e-01
      outer loop
         vertex 9.053073e+01 5.223057e+01 1.366895e+01
         vertex 9.053073e+01 5.103057e+01 1.366895e+01
         vertex 9.067714e+01 5.223057e+01 1.381536e+01
      endloop
   endfacet
   facet normal -7.071068e-01 -2.468850e-15 7.071068e-01
      outer loop
         vertex 9.067714e+01 5.223057e+01 1.381536e+01
         vertex 9.053073e+01 5.103057e+01 1.366895e+01
         vertex 9.067714e+01 5.103057e+01 1.381536e+01
      endloop
   endfacet
   facet normal -9.659264e-01 -9.036538e-16 2.588167e-01
      outer loop
         vertex 9.067714e+01 5.223057e+01 1.381536e+01
         vertex 9.067714e+01 5.103057e+01 1.381536e+01
         vertex 9.073073e+01 5.223057e+01 1.401536e+01
      endloop
   endfacet
   facet normal -9.659264e-01 -9.036538e-16 2.588167e-01
      outer loop
         vertex 9.073073e+01 5.223057e+01 1.401536e+01
         vertex 9.067714e+01 5.103057e+01 1.381536e+01
         vertex 9.073073e+01 5.103057e+01 1.401536e+01
      endloop
   endfacet
   facet normal 9.659253e-01 -9.036684e-16 2.588209e-01
      outer loop
         vertex 8.923073e+01 5.223057e+01 1.401536e+01
         vertex 8.923073e+01 5.103057e+01 1.401536e+01
         vertex 8.928432e+01 5.223057e+01 1.381536e+01
      endloop
   endfacet
   facet normal 9.659253e-01 -9.036684e-16 2.588209e-01
      outer loop
         vertex 8.928432e+01 5.223057e+01 1.381536e+01
         vertex 8.923073e+01 5.103057e+01 1.401536e+01
         vertex 8.928432e+01 5.103057e+01 1.381536e+01
      endloop
   endfacet
   facet normal 7.071068e-01 -2.468850e-15 7.071068e-01
      outer loop
         vertex 8.928432e+01 5.223057e+01 1.381536e+01
         vertex 8.928432e+01 5.103057e+01 1.381536e+01
         vertex 8.943073e+01 5.223057e+01 1.366895e+01
      endloop
   endfacet
   facet normal 7.071068e-01 -2.468850e-15 7.071068e-01
      outer loop
         vertex 8.943073e+01 5.223057e+01 1.366895e+01
         vertex 8.928432e+01 5.103057e+01 1.381536e+01
         vertex 8.943073e+01 5.103057e+01 1.366895e+01
      endloop
   endfacet
   facet normal 2.588209e-01 -3.372510e-15 9.659253e-01
      outer loop
         vertex 8.943073e+01 5.223057e+01 1.366895e+01
         vertex 8.943073e+01 5.103057e+01 1.366895e+01
         vertex 8.963073e+01 5.223057e+01 1.361536e+01
      endloop
   endfacet
   facet normal 2.588209e-01 -3.372510e-15 9.659253e-01
      outer loop
         vertex 8.963073e+01 5.223057e+01 1.361536e+01
         vertex 8.943073e+01 5.103057e+01 1.366895e+01
         vertex 8.963073e+01 5.103057e+01 1.361536e+01
      endloop
   endfacet
endsolid