solid mount_light_block
   facet normal 0.000000e+00 0.000000e+00 -1.000000e+00
      outer loop
         vertex 1.265385e+02 7.970666e+01 1.500000e-02
         vertex 1.278385e+02 8.100666e+01 1.500000e-02
         vertex 1.265385e+02 4.706662e+00 1.500000e-02
      endloop
   endfacet
   facet normal 0.000000e+00 0.000000e+00 -1.000000e+00
      outer loop
         vertex 1.265385e+02 4.706662e+00 1.500000e-02
         vertex 1.278385e+02 8.100666e+01 1.500000e-02
         vertex 1.278385e+02 3.406662e+00 1.500000e-02
      endloop
   endfacet
   facet normal 0.000000e+00 0.000000e+00 -1.000000e+00
      outer loop
         vertex 1.265385e+02 4.706662e+00 1.500000e-02
         vertex 1.278385e+02 3.406662e+00 1.500000e-02
         vertex 3.823850e+01 4.706662e+00 1.500000e-02
      endloop
   endfacet
   facet normal 0.000000e+00 0.000000e+00 -1.000000e+00
      outer loop
         vertex 3.823850e+01 4.706662e+00 1.500000e-02
         vertex 1.278385e+02 3.406662e+00 1.500000e-02
         vertex 3.693850e+01 3.406662e+00 1.500000e-02
      endloop
   endfacet
   facet normal 0.000000e+00 0.000000e+00 -1.000000e+00
      outer loop
         vertex 3.823850e+01 4.706662e+00 1.500000e-02
         vertex 3.693850e+01 3.406662e+00 1.500000e-02
         vertex 3.823850e+01 7.970666e+01 1.500000e-02
      endloop
   endfacet
   facet normal 0.000000e+00 0.000000e+00 -1.000000e+00
      outer loop
         vertex 3.823850e+01 7.970666e+01 1.500000e-02
         vertex 3.693850e+01 3.406662e+00 1.500000e-02
         vertex 3.693850e+01 8.100666e+01 1.500000e-02
      endloop
   endfacet
   facet normal 0.000000e+00 0.000000e+00 -1.000000e+00
      outer loop
         vertex 3.823850e+01 7.970666e+01 1.500000e-02
         vertex 3.693850e+01 8.100666e+01 1.500000e-02
         vertex 1.265385e+02 7.970666e+01 1.500000e-02
      endloop
   endfacet
   facet normal 0.000000e+00 0.000000e+00 -1.000000e+00
      outer loop
         vertex 1.265385e+02 7.970666e+01 1.500000e-02
         vertex 3.693850e+01 8.100666e+01 1.500000e-02
         vertex 1.278385e+02 8.100666e+01 1.500000e-02
      endloop
   endfacet
   facet normal 0.000000e+00 -0.000000e+00 1.000000e+00
      outer loop
         vertex 3.823850e+01 4.706662e+00 1.515000e+00
         vertex 3.693850e+01 3.406662e+00 1.515000e+00
         vertex 1.265385e+02 4.706662e+00 1.515000e+00
      endloop
   endfacet
   facet normal -0.000000e+00 0.000000e+00 1.000000e+00
      outer loop
         vertex 1.265385e+02 4.706662e+00 1.515000e+00
         vertex 3.693850e+01 3.406662e+00 1.515000e+00
         vertex 1.278385e+02 3.406662e+00 1.515000e+00
      endloop
   endfacet
   facet normal 0.000000e+00 0.000000e+00 1.000000e+00
      outer loop
         vertex 1.265385e+02 4.706662e+00 1.515000e+00
         vertex 1.278385e+02 3.406662e+00 1.515000e+00
         vertex 1.265385e+02 7.970666e+01 1.515000e+00
      endloop
   endfacet
   facet normal 0.000000e+00 0.000000e+00 1.000000e+00
      outer loop
         vertex 1.265385e+02 7.970666e+01 1.515000e+00
         vertex 1.278385e+02 3.406662e+00 1.515000e+00
         vertex 1.278385e+02 8.100666e+01 1.515000e+00
      endloop
   endfacet
   facet normal 0.000000e+00 0.000000e+00 1.000000e+00
      outer loop
         vertex 1.265385e+02 7.970666e+01 1.515000e+00
         vertex 1.278385e+02 8.100666e+01 1.515000e+00
         vertex 3.823850e+01 7.970666e+01 1.515000e+00
      endloop
   endfacet
   facet normal 0.000000e+00 0.000000e+00 1.000000e+00
      outer loop
         vertex 3.823850e+01 7.970666e+01 1.515000e+00
         vertex 1.278385e+02 8.100666e+01 1.515000e+00
         vertex 3.693850e+01 8.100666e+01 1.515000e+00
      endloop
   endfacet
   facet normal 0.000000e+00 0.000000e+00 1.000000e+00
      outer loop
         vertex 3.823850e+01 7.970666e+01 1.515000e+00
         vertex 3.693850e+01 8.100666e+01 1.515000e+00
         vertex 3.823850e+01 4.706662e+00 1.515000e+00
      endloop
   endfacet
   facet normal 0.000000e+00 0.000000e+00 1.000000e+00
      outer loop
         vertex 3.823850e+01 4.706662e+00 1.515000e+00
         vertex 3.693850e+01 8.100666e+01 1.515000e+00
         vertex 3.693850e+01 3.406662e+00 1.515000e+00
      endloop
   endfacet
   facet normal -1.000000e+00 0.000000e+00 0.000000e+00
      outer loop
         vertex 3.693850e+01 8.100666e+01 1.500000e-02
         vertex 3.693850e+01 3.406662e+00 1.500000e-02
         vertex 3.693850e+01 8.100666e+01 1.515000e+00
      endloop
   endfacet
   facet normal -1.000000e+00 0.000000e+00 0.000000e+00
      outer loop
         vertex 3.693850e+01 8.100666e+01 1.515000e+00
         vertex 3.693850e+01 3.406662e+00 1.500000e-02
         vertex 3.693850e+01 3.406662e+00 1.515000e+00
      endloop
   endfacet
   facet normal 0.000000e+00 1.000000e+00 0.000000e+00
      outer loop
         vertex 1.278385e+02 8.100666e+01 1.500000e-02
         vertex 3.693850e+01 8.100666e+01 1.500000e-02
         vertex 1.278385e+02 8.100666e+01 1.515000e+00
      endloop
   endfacet
   facet normal 0.000000e+00 1.000000e+00 0.000000e+00
      outer loop
         vertex 1.278385e+02 8.100666e+01 1.515000e+00
         vertex 3.693850e+01 8.100666e+01 1.500000e-02
         vertex 3.693850e+01 8.100666e+01 1.515000e+00
      endloop
   endfacet
   facet normal 1.000000e+00 0.000000e+00 0.000000e+00
      outer loop
         vertex 1.278385e+02 3.406662e+00 1.500000e-02
         vertex 1.278385e+02 8.100666e+01 1.500000e-02
         vertex 1.278385e+02 3.406662e+00 1.515000e+00
      endloop
   endfacet
   facet normal 1.000000e+00 0.000000e+00 0.000000e+00
      outer loop
         vertex 1.278385e+02 3.406662e+00 1.515000e+00
         vertex 1.278385e+02 8.100666e+01 1.500000e-02
         vertex 1.278385e+02 8.100666e+01 1.515000e+00
      endloop
   endfacet
   facet normal 0.000000e+00 -1.000000e+00 0.000000e+00
      outer loop
         vertex 3.693850e+01 3.406662e+00 1.500000e-02
         vertex 1.278385e+02 3.406662e+00 1.500000e-02
         vertex 3.693850e+01 3.406662e+00 1.515000e+00
      endloop
   endfacet
   facet normal 0.000000e+00 -1.000000e+00 0.000000e+00
      outer loop
         vertex 3.693850e+01 3.406662e+00 1.515000e+00
         vertex 1.278385e+02 3.406662e+00 1.500000e-02
         vertex 1.278385e+02 3.406662e+00 1.515000e+00
      endloop
   endfacet
   facet normal 1.000000e+00 0.000000e+00 0.000000e+00
      outer loop
         vertex 3.823850e+01 4.706662e+00 1.500000e-02
         vertex 3.823850e+01 7.970666e+01 1.500000e-02
         vertex 3.823850e+01 4.706662e+00 1.515000e+00
      endloop
   endfacet
   facet normal 1.000000e+00 0.000000e+00 0.000000e+00
      outer loop
         vertex 3.823850e+01 4.706662e+00 1.515000e+00
         vertex 3.823850e+01 7.970666e+01 1.500000e-02
         vertex 3.823850e+01 7.970666e+01 1.515000e+00
      endloop
   endfacet
   facet normal 0.000000e+00 -1.000000e+00 0.000000e+00
      outer loop
         vertex 3.823850e+01 7.970666e+01 1.500000e-02
         vertex 1.265385e+02 7.970666e+01 1.500000e-02
         vertex 3.823850e+01 7.970666e+01 1.515000e+00
      endloop
   endfacet
   facet normal 0.000000e+00 -1.000000e+00 0.000000e+00
      outer loop
         vertex 3.823850e+01 7.970666e+01 1.515000e+00
         vertex 1.265385e+02 7.970666e+01 1.500000e-02
         vertex 1.265385e+02 7.970666e+01 1.515000e+00
      endloop
   endfacet
   facet normal -1.000000e+00 0.000000e+00 0.000000e+00
      outer loop
         vertex 1.265385e+02 7.970666e+01 1.500000e-02
         vertex 1.265385e+02 4.706662e+00 1.500000e-02
         vertex 1.265385e+02 7.970666e+01 1.515000e+00
      endloop
   endfacet
   facet normal -1.000000e+00 0.000000e+00 0.000000e+00
      outer loop
         vertex 1.265385e+02 7.970666e+01 1.515000e+00
         vertex 1.265385e+02 4.706662e+00 1.500000e-02
         vertex 1.265385e+02 4.706662e+00 1.515000e+00
      endloop
   endfacet
   facet normal 0.000000e+00 1.000000e+00 0.000000e+00
      outer loop
         vertex 1.265385e+02 4.706662e+00 1.500000e-02
         vertex 3.823850e+01 4.706662e+00 1.500000e-02
         vertex 1.265385e+02 4.706662e+00 1.515000e+00
      endloop
   endfacet
   facet normal 0.000000e+00 1.000000e+00 0.000000e+00
      outer loop
         vertex 1.265385e+02 4.706662e+00 1.515000e+00
         vertex 3.823850e+01 4.706662e+00 1.500000e-02
         vertex 3.823850e+01 4.706662e+00 1.515000e+00
      endloop
   endfacet
endsolid